<?xml version="1.0" encoding="UTF-8"?>
<svg width="120px" height="120px" viewBox="0 0 120 120" version="1.1" xmlns="http://www.w3.org/2000/svg" xmlns:xlink="http://www.w3.org/1999/xlink">
    <!-- Generator: Sketch 49.1 (51147) - http://www.bohemiancoding.com/sketch -->
    <title>Artboard</title>
    <desc>Created with Sketch.</desc>
    <defs></defs>
    <g id="Artboard" stroke="none" stroke-width="1" fill="none" fill-rule="evenodd">
        <g id="Group">
            <circle id="Oval" fill="#FFFFFF" cx="60" cy="60" r="60"></circle>
            <path d="M61.2888281,93.9058594 C61.1259375,94.6476562 60.8934375,95.1876563 60.6264844,95.5823437 C60.718125,95.6097656 60.8158594,95.625 60.9199219,95.625 C62.6055469,95.625 63.61875,92.2659375 64.2742969,89.6439844 C64.9209375,87.0571875 68.0974219,61.9935938 71.9976562,61.9935938 C72.050625,61.9935938 72.1035937,61.9980469 72.1570312,62.0074219 C75.7694531,62.6435156 78.7120312,79.0502344 83.3003906,79.0502344 C83.3003906,79.0502344 85.3605469,78.8629687 87.4207031,74.555625 C89.4808594,70.2480469 91.8564844,63.8015625 93.6009375,62.3821875 C93.9339844,62.11125 94.2466406,61.9910156 94.5391406,61.9910156 C95.8807031,61.9910156 96.7917188,64.5199219 97.2529687,66.5960156 C97.815,69.1242187 99.2196094,78.5821875 103.246172,81.2041406 C104.255156,81.8610937 105.376641,82.1421094 106.481016,82.1421094 C109.783359,82.1421094 112.937812,79.6335937 112.516641,77.1775781 C111.954844,73.9000781 105.587109,48.3358594 101.373281,33.0721875 C101.373281,33.0721875 100.459219,29.325 98.8117969,29.3247656 C98.791875,29.3247656 98.7717187,29.3252344 98.7513281,29.3264062 C97.0657031,29.4201563 94.6310156,34.2895313 91.4472656,40.5635156 C88.2635156,46.8375 85.2667969,52.4559375 83.3003906,52.4559375 C81.3339844,52.4559375 79.929375,49.8339844 74.96625,40.8442969 C70.003125,31.8548437 68.41125,29.5136719 67.1939062,29.5136719 C67.1939062,29.5136719 67.1676562,29.5101562 67.1210156,29.5101562 C66.905625,29.5101562 66.2589844,29.5867969 65.7892969,30.4502344 C65.7892969,30.4502344 62.2582031,35.1928125 60.3792187,58.4880469 C61.0600781,66.9590625 61.5213281,77.8389844 61.5213281,91.7857031 C61.5213281,91.8290625 61.5185156,92.8589062 61.2888281,93.9058594" id="Fill-1" fill="#EC9141"></path>
            <path d="M60.5857031,91.7857031 C60.5857031,39.2524219 54.0309375,30.4502344 54.0309375,30.4502344 C53.56125,29.5867969 52.9146094,29.5101562 52.6992188,29.5101562 C52.6525781,29.5101562 52.6263281,29.5136719 52.6263281,29.5136719 C51.4089844,29.5136719 49.816875,31.8548437 44.8539844,40.8442969 C39.8908594,49.8339844 38.48625,52.4559375 36.5198438,52.4559375 C34.5534375,52.4559375 31.5567188,46.8375 28.3729688,40.5635156 C25.1892188,34.2895313 22.7545313,29.4201563 21.0689063,29.3264062 C21.0485156,29.3252344 21.0283594,29.3247656 21.0082031,29.3247656 C19.3610156,29.3247656 18.4469531,33.0721875 18.4469531,33.0721875 C14.233125,48.3358594 7.86539063,73.9000781 7.30359375,77.1775781 C6.88242188,79.6335937 10.036875,82.1421094 13.3392188,82.1421094 C14.4435938,82.1421094 15.5650781,81.8610937 16.5740625,81.2041406 C20.600625,78.5821875 22.0052344,69.1242187 22.5672656,66.5960156 C23.0285156,64.5199219 23.9395313,61.9910156 25.2810938,61.9910156 C25.5733594,61.9910156 25.88625,62.11125 26.2192969,62.3821875 C27.96375,63.8015625 30.339375,70.2480469 32.3995313,74.555625 C34.4596875,78.8629687 36.5198438,79.0502344 36.5198438,79.0502344 C41.1082031,79.0502344 44.0507813,62.6435156 47.6632031,62.0074219 C47.7166406,61.9980469 47.7696094,61.9933594 47.8225781,61.9935938 C51.7228125,61.9945312 54.8992969,87.0571875 55.5459375,89.6439844 C56.2014844,92.2659375 57.2146875,95.625 58.9003125,95.625 C60.5857031,95.625 60.5857031,91.7857031 60.5857031,91.7857031" id="Fill-3" fill="#9B2469"></path>
        </g>
    </g>
</svg>